<?xml version="1.0"?>
<svg width="976" height="1600" xmlns="http://www.w3.org/2000/svg" xmlns:svg="http://www.w3.org/2000/svg">
 <style type="text/css">.st0{fill:#FFFFFF;}
	.st1{clip-path:url(#SVGID_2_);}
	.st2{fill:#333333;}
	.st3{fill:#FFEB5C;}
	.st4{fill:none;stroke:#333333;stroke-width:2;stroke-linecap:square;stroke-miterlimit:3;}</style>
 <g class="layer">
  <title>Layer 1</title>
  <g id="Paper_Backing">
   <path class="st0" d="m960,22l0,1556c0,3.3 -2.7,6 -6,6l-932,0c-3.3,0 -6,-2.7 -6,-6l0,-1556c0,-3.3 2.7,-6 6,-6l932,0c3.3,0 6,2.7 6,6z" id="svg_1"/>
  </g>
  <g id="svg_10" transform="matrix(1 0 0 1 0 0)">
   <g id="Layer_1_2_">
    <g id="svg_11" transform="matrix( 1, 0, 0, 1, 0,0) ">
     <g id="svg_12">
      <g id="Layer0_0_FILL_1_">
       <path d="m52,1548l0,15l-37,37l946,0l-37,-37l0,-15l-872,0m0,-1496l0,-14.3l-37.7,-37.7l-14.3,0l0,1600l15,0l37,-37l0,-15l0,-1496m872,0l0,-14.3l37.7,-37.7l-947.4,0l37.7,37.7l0,14.3l872,0m52,-52l-14.3,0l-37.7,37.7l0,14.3l0,1496l0,15l37,37l15,0l0,-1600z" id="svg_13"/>
      </g>
     </g>
     <g id="svg_14">
      <path class="st4" d="m961,1600l15,0l0,-1600l-14.3,0l-37.7,37.7l0,14.3l0,1496l0,15l37,37l-946,0l-15,0l0,-1600l14.3,0l947.4,0m-909.7,52l0,-14.3l-37.7,-37.7m0.7,1600l37,-37l0,-15l0,-1496l872,0m0,1496l-872,0" id="Layer0_0_1_STROKES_1_"/>
     </g>
    </g>
   </g>
  </g>
  <text fill="#000000" font-family="Serif" font-size="300" font-weight="bold" id="svg_15" letter-spacing="20" stroke="#000000" stroke-width="0" style="cursor: move;" text-anchor="middle" word-spacing="0" x="501" xml:space="preserve" y="813">........</text>
 </g>
</svg>